<svg xmlns="http://www.w3.org/2000/svg" viewBox="0 0 1500 1220" font-family="Inter, -apple-system, Segoe UI, Roboto, sans-serif">
  <defs>
    <filter id="softShadow2" x="-20%" y="-20%" width="140%" height="140%">
      <feDropShadow dx="0" dy="3" stdDeviation="4" flood-opacity="0.10"/>
    </filter>
    <filter id="iconShadow2" x="-20%" y="-20%" width="140%" height="140%">
      <feDropShadow dx="0" dy="2" stdDeviation="2" flood-opacity="0.15"/>
    </filter>
    <marker id="flowArrow" viewBox="0 0 12 12" refX="11" refY="6" markerWidth="9" markerHeight="9" orient="auto-start-reverse">
      <path d="M 0 0 L 12 6 L 0 12 Z" fill="#1A2B4A"/>
    </marker>
    <marker id="dashedArrow" viewBox="0 0 12 12" refX="11" refY="6" markerWidth="9" markerHeight="9" orient="auto-start-reverse">
      <path d="M 0 0 L 12 6 L 0 12 Z" fill="#8B95B0"/>
    </marker>
    <linearGradient id="g2Teal" x1="0%" y1="0%" x2="0%" y2="100%"><stop offset="0%" stop-color="#7CC5C6"/><stop offset="100%" stop-color="#4A9899"/></linearGradient>
    <linearGradient id="g2Orange" x1="0%" y1="0%" x2="0%" y2="100%"><stop offset="0%" stop-color="#F5A875"/><stop offset="100%" stop-color="#E0814A"/></linearGradient>
    <linearGradient id="g2Blue" x1="0%" y1="0%" x2="0%" y2="100%"><stop offset="0%" stop-color="#6B95D9"/><stop offset="100%" stop-color="#3D6BBA"/></linearGradient>
    <linearGradient id="g2Red" x1="0%" y1="0%" x2="0%" y2="100%"><stop offset="0%" stop-color="#F47A5E"/><stop offset="100%" stop-color="#D6452E"/></linearGradient>
    <linearGradient id="g2Green" x1="0%" y1="0%" x2="0%" y2="100%"><stop offset="0%" stop-color="#88C292"/><stop offset="100%" stop-color="#5C9E68"/></linearGradient>
    <linearGradient id="g2Bronze" x1="0%" y1="0%" x2="0%" y2="100%"><stop offset="0%" stop-color="#D9A876"/><stop offset="100%" stop-color="#A87545"/></linearGradient>
    <linearGradient id="g2Silver" x1="0%" y1="0%" x2="0%" y2="100%"><stop offset="0%" stop-color="#C8C8C8"/><stop offset="100%" stop-color="#8E8E8E"/></linearGradient>
    <linearGradient id="g2Gold" x1="0%" y1="0%" x2="0%" y2="100%"><stop offset="0%" stop-color="#E8C56A"/><stop offset="100%" stop-color="#C99A2E"/></linearGradient>
  </defs>

  <!-- ═══════════ TITLE BAND ═══════════ -->
  <text x="750" y="50" font-size="13" font-weight="600" letter-spacing="4" fill="#5B7BA8" text-anchor="middle">A POC BY PAVAN</text>
  <text x="750" y="95" font-size="38" font-weight="800" letter-spacing="1" fill="#1A2B4A" text-anchor="middle">OPERATIONAL DATA FLOW</text>
  <text x="750" y="125" font-size="16" font-weight="400" fill="#5B7BA8" text-anchor="middle">End-to-End Sequence — From Generation on a Laptop to Suburb Insights on Databricks AI/BI</text>
  <line x1="620" y1="145" x2="880" y2="145" stroke="#C9D3E2" stroke-width="2" stroke-linecap="round"/>
  <circle cx="750" cy="145" r="5" fill="#5B7BA8"/>

  <!-- ═══════════ LANE BACKGROUNDS ═══════════ -->
  <rect x="50" y="175" width="1400" height="175" rx="12" fill="#FFF4D6" opacity="0.55"/>
  <rect x="50" y="410" width="1400" height="210" rx="12" fill="#DBECF5" opacity="0.55"/>
  <rect x="50" y="680" width="1400" height="210" rx="12" fill="#FBE3DC" opacity="0.55"/>
  <rect x="50" y="950" width="1400" height="125" rx="12" fill="#D6F5DC" opacity="0.55"/>

  <!-- ═══════════ LANE 1 · LOCAL ═══════════ -->
  <g transform="translate(70, 205)">
    <rect x="0" y="0" width="130" height="32" rx="16" fill="#FFE9B8"/>
    <text x="65" y="21" font-size="13" font-weight="700" letter-spacing="2" fill="#8B6B1A" text-anchor="middle">LOCAL</text>
  </g>
  <text x="135" y="262" font-size="11" font-weight="500" fill="#8B6B1A" text-anchor="middle">• Developer laptop</text>
  <text x="135" y="280" font-size="11" font-weight="500" fill="#8B6B1A" text-anchor="middle">• User-initiated</text>

  <!-- Step 1 -->
  <g filter="url(#softShadow2)"><rect x="262" y="205" width="180" height="120" rx="10" fill="white" stroke="#E0D2A0" stroke-width="1.5"/></g>
  <circle cx="240" cy="265" r="22" fill="#8B6B1A" filter="url(#iconShadow2)"/>
  <text x="240" y="273" font-size="20" font-weight="800" fill="white" text-anchor="middle">1</text>
  <g transform="translate(322, 222)" filter="url(#iconShadow2)">
    <path d="M 0 12 L 50 0 L 30 25 L 18 18 Z" fill="#F0945C"/>
    <path d="M 30 25 L 25 18 L 18 18 Z" fill="#D17640"/>
  </g>
  <text x="352" y="288" font-size="13" font-weight="700" fill="#1A2B4A" text-anchor="middle">Seed &amp; Emit</text>
  <text x="352" y="304" font-size="10" fill="#475569" text-anchor="middle">seed.py · emit.py</text>
  <text x="352" y="319" font-size="10" font-style="italic" fill="#7B8AA8" text-anchor="middle">synthetic universe → files</text>

  <!-- Step 2 -->
  <g filter="url(#softShadow2)"><rect x="562" y="205" width="180" height="120" rx="10" fill="white" stroke="#E0D2A0" stroke-width="1.5"/></g>
  <circle cx="540" cy="265" r="22" fill="#8B6B1A" filter="url(#iconShadow2)"/>
  <text x="540" y="273" font-size="20" font-weight="800" fill="white" text-anchor="middle">2</text>
  <g transform="translate(602, 224)">
    <rect x="0" y="0" width="100" height="44" rx="3" fill="#1A2B4A"/>
    <text x="7" y="15" font-size="8" fill="#88C292" font-family="monospace">$ databricks</text>
    <text x="7" y="27" font-size="8" fill="#88C292" font-family="monospace">  bundle run</text>
    <text x="7" y="39" font-size="8" fill="#88C292" font-family="monospace">  -t dev</text>
    <rect x="0" y="44" width="100" height="3" fill="#0F1A2E"/>
  </g>
  <text x="652" y="288" font-size="13" font-weight="700" fill="#1A2B4A" text-anchor="middle">Trigger Pipeline</text>
  <text x="652" y="304" font-size="10" fill="#475569" text-anchor="middle">Lakeflow Job</text>
  <text x="652" y="319" font-size="10" font-style="italic" fill="#7B8AA8" text-anchor="middle">scheduled or on-demand</text>

  <!-- Side annotation cards -->
  <g transform="translate(862, 205)" filter="url(#softShadow2)">
    <rect x="0" y="0" width="220" height="120" rx="8" fill="#FFFBED" stroke="#E5C97B" stroke-width="1.2"/>
    <text x="110" y="24" font-size="11" font-weight="700" fill="#8B6B1A" text-anchor="middle">WHAT GETS WRITTEN</text>
    <text x="110" y="52" font-size="10" fill="#475569" text-anchor="middle">Files carry batch_id + effective_ts</text>
    <text x="110" y="74" font-size="10" fill="#475569" text-anchor="middle">source_system = SYNTHETIC</text>
    <text x="110" y="96" font-size="10" fill="#475569" text-anchor="middle">Per-entity landing paths</text>
  </g>
  <g transform="translate(1110, 205)" filter="url(#softShadow2)">
    <rect x="0" y="0" width="232" height="120" rx="8" fill="#FFFBED" stroke="#E5C97B" stroke-width="1.2"/>
    <text x="116" y="24" font-size="11" font-weight="700" fill="#8B6B1A" text-anchor="middle">EMIT MODES</text>
    <text x="116" y="52" font-size="10" fill="#475569" text-anchor="middle">--mode new (next-year inserts)</text>
    <text x="116" y="74" font-size="10" fill="#475569" text-anchor="middle">--mode update (SCD2 changes)</text>
    <text x="116" y="96" font-size="10" fill="#475569" text-anchor="middle">--mode mixed (new + update)</text>
  </g>

  <!-- LOCAL row arrow 1→2 -->
  <g fill="none" stroke="#1A2B4A" stroke-width="2.5"><path d="M 447 265 L 518 265" marker-end="url(#flowArrow)"/></g>

  <!-- Connector LOCAL → INGEST -->
  <g fill="none" stroke="#1A2B4A" stroke-width="2.5"><path d="M 652 325 V 372 H 352 V 438" marker-end="url(#flowArrow)"/></g>
  <g transform="translate(382, 359)">
    <rect x="0" y="0" width="240" height="26" rx="13" fill="white" stroke="#8B95B0" stroke-width="1.5" stroke-dasharray="4,3"/>
    <text x="120" y="17" font-size="11" font-style="italic" fill="#5B7BA8" text-anchor="middle">Files land in a Unity Catalog Volume</text>
  </g>

  <!-- ═══════════ LANE 2 · LAKEHOUSE · INGEST ═══════════ -->
  <g transform="translate(70, 440)">
    <rect x="0" y="0" width="170" height="32" rx="16" fill="#D4E8F0"/>
    <text x="85" y="21" font-size="12" font-weight="700" letter-spacing="1.5" fill="#2A6A8C" text-anchor="middle">INGEST</text>
  </g>
  <text x="135" y="498" font-size="11" font-weight="500" fill="#2A6A8C" text-anchor="middle">• Auto Loader</text>
  <text x="135" y="516" font-size="11" font-weight="500" fill="#2A6A8C" text-anchor="middle">• Incremental</text>
  <text x="135" y="534" font-size="11" font-weight="500" fill="#2A6A8C" text-anchor="middle">• Bronze</text>

  <!-- Step 3: Landing Volume -->
  <g filter="url(#softShadow2)"><rect x="262" y="440" width="180" height="150" rx="10" fill="white" stroke="#BBD7E6" stroke-width="1.5"/></g>
  <circle cx="240" cy="515" r="22" fill="#2A6A8C" filter="url(#iconShadow2)"/>
  <text x="240" y="523" font-size="20" font-weight="800" fill="white" text-anchor="middle">3</text>
  <g transform="translate(318, 458)" filter="url(#iconShadow2)">
    <path d="M 4 16 L 4 58 L 64 58 L 64 24 L 34 24 L 28 16 Z" fill="url(#g2Orange)"/>
    <path d="M 4 16 L 28 16 L 34 24 L 4 24 Z" fill="#F5B587"/>
    <rect x="14" y="38" width="40" height="11" rx="2" fill="#D17640"/>
    <text x="34" y="47" font-size="8" font-weight="700" fill="white" text-anchor="middle">VOLUME</text>
  </g>
  <text x="352" y="548" font-size="13" font-weight="700" fill="#1A2B4A" text-anchor="middle">Landing Volume</text>
  <text x="352" y="564" font-size="10" fill="#475569" text-anchor="middle">Raw files arrive</text>
  <text x="352" y="579" font-size="10" font-style="italic" fill="#7B8AA8" text-anchor="middle">batch_id · ingested_at</text>

  <!-- Step 4: Auto Loader -->
  <g filter="url(#softShadow2)"><rect x="562" y="440" width="180" height="150" rx="10" fill="white" stroke="#BBD7E6" stroke-width="1.5"/></g>
  <circle cx="540" cy="515" r="22" fill="#2A6A8C" filter="url(#iconShadow2)"/>
  <text x="540" y="523" font-size="20" font-weight="800" fill="white" text-anchor="middle">4</text>
  <g transform="translate(652, 500)" filter="url(#iconShadow2)">
    <g fill="url(#g2Blue)">
      <path d="M -5 -28 L 5 -28 L 5 -24 L 10 -21 L 15 -25 L 20 -20 L 16 -15 L 18 -10 L 24 -10 L 24 -5 L 28 -5 L 28 5 L 24 5 L 24 10 L 18 10 L 16 15 L 20 20 L 15 25 L 10 21 L 5 24 L 5 28 L -5 28 L -5 24 L -10 21 L -15 25 L -20 20 L -16 15 L -18 10 L -24 10 L -24 5 L -28 5 L -28 -5 L -24 -5 L -24 -10 L -18 -10 L -16 -15 L -20 -20 L -15 -25 L -10 -21 L -5 -24 Z"/>
    </g>
    <circle cx="0" cy="0" r="14" fill="#D4E8F0"/>
    <circle cx="0" cy="0" r="14" fill="none" stroke="#3D6BBA" stroke-width="1.5"/>
    <path d="M 0 -8 L 0 4 M -5 -1 L 0 4 L 5 -1" stroke="#3D6BBA" stroke-width="2.4" fill="none" stroke-linecap="round" stroke-linejoin="round"/>
    <rect x="-6" y="6" width="12" height="3" rx="1.5" fill="#3D6BBA"/>
  </g>
  <text x="652" y="548" font-size="13" font-weight="700" fill="#1A2B4A" text-anchor="middle">Auto Loader</text>
  <text x="652" y="564" font-size="10" fill="#475569" text-anchor="middle">Picks up new files only</text>
  <text x="652" y="579" font-size="10" font-style="italic" fill="#7B8AA8" text-anchor="middle">schema evolution on</text>

  <!-- Step 5: Bronze -->
  <g filter="url(#softShadow2)"><rect x="862" y="440" width="180" height="150" rx="10" fill="white" stroke="#BBD7E6" stroke-width="1.5"/></g>
  <circle cx="840" cy="515" r="22" fill="#2A6A8C" filter="url(#iconShadow2)"/>
  <text x="840" y="523" font-size="20" font-weight="800" fill="white" text-anchor="middle">5</text>
  <g transform="translate(918, 480)" filter="url(#iconShadow2)">
    <rect x="0" y="0" width="68" height="22" fill="url(#g2Bronze)"/>
    <ellipse cx="34" cy="22" rx="34" ry="6" fill="url(#g2Bronze)"/>
    <ellipse cx="34" cy="0" rx="34" ry="6" fill="#E5BC8B"/>
    <text x="34" y="14" font-size="9" font-weight="700" fill="#5C3D1F" text-anchor="middle">BRONZE</text>
  </g>
  <g transform="translate(952, 524)">
    <rect x="-9" y="-7" width="18" height="3.4" rx="1.7" fill="#A87545"/>
    <rect x="-9" y="-1.7" width="18" height="3.4" rx="1.7" fill="#C49063"/>
    <rect x="-9" y="3.6" width="18" height="3.4" rx="1.7" fill="#D9A876"/>
  </g>
  <text x="952" y="548" font-size="13" font-weight="700" fill="#1A2B4A" text-anchor="middle">Bronze Tables</text>
  <text x="952" y="564" font-size="10" fill="#475569" text-anchor="middle">Raw, append-only</text>
  <text x="952" y="579" font-size="10" font-style="italic" fill="#7B8AA8" text-anchor="middle">faithful source copy</text>

  <!-- INGEST row arrows -->
  <g fill="none" stroke="#1A2B4A" stroke-width="2.5">
    <path d="M 447 515 L 518 515" marker-end="url(#flowArrow)"/>
    <path d="M 747 515 L 818 515" marker-end="url(#flowArrow)"/>
  </g>

  <!-- Connector INGEST → TRANSFORM -->
  <g fill="none" stroke="#1A2B4A" stroke-width="2.5"><path d="M 952 590 V 642 H 352 V 708" marker-end="url(#flowArrow)"/></g>
  <g transform="translate(532, 629)">
    <rect x="0" y="0" width="240" height="26" rx="13" fill="white" stroke="#8B95B0" stroke-width="1.5" stroke-dasharray="4,3"/>
    <text x="120" y="17" font-size="11" font-style="italic" fill="#5B7BA8" text-anchor="middle">DLT streams only the new rows</text>
  </g>

  <!-- ═══════════ LANE 3 · LAKEHOUSE · TRANSFORM ═══════════ -->
  <g transform="translate(70, 710)">
    <rect x="0" y="0" width="170" height="32" rx="16" fill="#FBDAD2"/>
    <text x="85" y="21" font-size="12" font-weight="700" letter-spacing="1.5" fill="#A83A28" text-anchor="middle">TRANSFORM</text>
  </g>
  <text x="135" y="768" font-size="11" font-weight="500" fill="#A83A28" text-anchor="middle">• DLT (declarative)</text>
  <text x="135" y="786" font-size="11" font-weight="500" fill="#A83A28" text-anchor="middle">• SCD2 + DQ</text>
  <text x="135" y="804" font-size="11" font-weight="500" fill="#A83A28" text-anchor="middle">• Gold star</text>

  <!-- Step 6: Silver + DQ -->
  <g filter="url(#softShadow2)"><rect x="262" y="710" width="180" height="150" rx="10" fill="white" stroke="#EEB6A8" stroke-width="1.5"/></g>
  <circle cx="240" cy="785" r="22" fill="#A83A28" filter="url(#iconShadow2)"/>
  <text x="240" y="793" font-size="20" font-weight="800" fill="white" text-anchor="middle">6</text>
  <g transform="translate(318, 750)" filter="url(#iconShadow2)">
    <rect x="0" y="0" width="68" height="22" fill="url(#g2Silver)"/>
    <ellipse cx="34" cy="22" rx="34" ry="6" fill="url(#g2Silver)"/>
    <ellipse cx="34" cy="0" rx="34" ry="6" fill="#DCDCDC"/>
    <text x="34" y="14" font-size="9" font-weight="700" fill="#404040" text-anchor="middle">SILVER</text>
  </g>
  <g transform="translate(352, 794)">
    <circle cx="0" cy="0" r="9" fill="#D6EBDB"/>
    <path d="M -4 0 L -1 3 L 5 -4" stroke="#3B7548" stroke-width="2" fill="none" stroke-linecap="round" stroke-linejoin="round"/>
  </g>
  <text x="352" y="818" font-size="13" font-weight="700" fill="#1A2B4A" text-anchor="middle">Silver + DQ</text>
  <text x="352" y="834" font-size="10" fill="#475569" text-anchor="middle">Type · dedup + cast</text>
  <text x="352" y="849" font-size="10" font-style="italic" fill="#7B8AA8" text-anchor="middle">expectations: warn / fail</text>

  <!-- Step 7: SCD2 dims -->
  <g filter="url(#softShadow2)"><rect x="562" y="710" width="180" height="150" rx="10" fill="white" stroke="#EEB6A8" stroke-width="1.5"/></g>
  <circle cx="540" cy="785" r="22" fill="#A83A28" filter="url(#iconShadow2)"/>
  <text x="540" y="793" font-size="20" font-weight="800" fill="white" text-anchor="middle">7</text>
  <g transform="translate(621, 738)">
    <rect x="0" y="0" width="9" height="34" fill="#D6452E"/>
    <rect x="13" y="6" width="9" height="28" fill="#F0735A"/>
    <rect x="26" y="12" width="9" height="22" fill="#F79A86"/>
    <rect x="39" y="6" width="9" height="28" fill="#F0735A"/>
    <rect x="52" y="0" width="9" height="34" fill="#88C292"/>
    <line x1="-2" y1="37" x2="63" y2="37" stroke="#1A2B4A" stroke-width="1.5"/>
  </g>
  <text x="652" y="818" font-size="13" font-weight="700" fill="#1A2B4A" text-anchor="middle">SCD2 Dimensions</text>
  <text x="652" y="834" font-size="10" fill="#475569" text-anchor="middle">APPLY CHANGES INTO</text>
  <text x="652" y="849" font-size="10" font-style="italic" fill="#7B8AA8" text-anchor="middle">dim_suburb · dim_lga</text>

  <!-- Step 8: Gold facts -->
  <g filter="url(#softShadow2)"><rect x="862" y="710" width="180" height="150" rx="10" fill="white" stroke="#EEB6A8" stroke-width="1.5"/></g>
  <circle cx="840" cy="785" r="22" fill="#A83A28" filter="url(#iconShadow2)"/>
  <text x="840" y="793" font-size="20" font-weight="800" fill="white" text-anchor="middle">8</text>
  <g transform="translate(918, 750)" filter="url(#iconShadow2)">
    <rect x="0" y="0" width="68" height="22" fill="url(#g2Gold)"/>
    <ellipse cx="34" cy="22" rx="34" ry="6" fill="url(#g2Gold)"/>
    <ellipse cx="34" cy="0" rx="34" ry="6" fill="#F0D480"/>
    <text x="34" y="14" font-size="9" font-weight="700" fill="#7A5814" text-anchor="middle">GOLD</text>
  </g>
  <g transform="translate(952, 794)">
    <path d="M 0 -9 L 2.5 -2.5 L 9 -2.5 L 4 2 L 6 9 L 0 5 L -6 9 L -4 2 L -9 -2.5 L -2.5 -2.5 Z" fill="#C99A2E"/>
  </g>
  <text x="952" y="818" font-size="13" font-weight="700" fill="#1A2B4A" text-anchor="middle">Gold Facts</text>
  <text x="952" y="834" font-size="10" fill="#475569" text-anchor="middle">by (suburb, year)</text>
  <text x="952" y="849" font-size="10" font-style="italic" fill="#7B8AA8" text-anchor="middle">fact_suburb_*</text>

  <!-- Step 9: Reporting views -->
  <g filter="url(#softShadow2)"><rect x="1162" y="710" width="180" height="150" rx="10" fill="white" stroke="#EEB6A8" stroke-width="1.5"/></g>
  <circle cx="1140" cy="785" r="22" fill="#A83A28" filter="url(#iconShadow2)"/>
  <text x="1140" y="793" font-size="20" font-weight="800" fill="white" text-anchor="middle">9</text>
  <g transform="translate(1222, 736)" filter="url(#iconShadow2)">
    <rect x="0" y="0" width="60" height="44" rx="4" fill="url(#g2Green)"/>
    <rect x="5" y="5" width="50" height="34" rx="2" fill="#EAF7ED"/>
    <line x1="11" y1="14" x2="49" y2="14" stroke="#5C9E68" stroke-width="2"/>
    <line x1="11" y1="22" x2="44" y2="22" stroke="#88C292" stroke-width="2"/>
    <line x1="11" y1="30" x2="40" y2="30" stroke="#88C292" stroke-width="2"/>
  </g>
  <text x="1252" y="818" font-size="13" font-weight="700" fill="#1A2B4A" text-anchor="middle">Reporting Views</text>
  <text x="1252" y="834" font-size="10" fill="#475569" text-anchor="middle">vw_q1 … vw_q6</text>
  <text x="1252" y="849" font-size="10" font-style="italic" fill="#7B8AA8" text-anchor="middle">curated per question</text>

  <!-- TRANSFORM row arrows -->
  <g fill="none" stroke="#1A2B4A" stroke-width="2.5">
    <path d="M 447 785 L 518 785" marker-end="url(#flowArrow)"/>
    <path d="M 747 785 L 818 785" marker-end="url(#flowArrow)"/>
    <path d="M 1047 785 L 1118 785" marker-end="url(#flowArrow)"/>
  </g>

  <!-- Connector TRANSFORM → CONSUMER -->
  <g fill="none" stroke="#1A2B4A" stroke-width="2.5"><path d="M 1252 860 V 912 H 352 V 976" marker-end="url(#flowArrow)"/></g>
  <g transform="translate(682, 899)">
    <rect x="0" y="0" width="240" height="26" rx="13" fill="white" stroke="#8B95B0" stroke-width="1.5" stroke-dasharray="4,3"/>
    <text x="120" y="17" font-size="11" font-style="italic" fill="#5B7BA8" text-anchor="middle">Gold refreshed · run logged</text>
  </g>

  <!-- ═══════════ LANE 4 · CONSUMER ═══════════ -->
  <g transform="translate(70, 978)">
    <rect x="0" y="0" width="140" height="32" rx="16" fill="#D6EBDB"/>
    <text x="70" y="21" font-size="12" font-weight="700" letter-spacing="1.5" fill="#3B7548" text-anchor="middle">CONSUMER</text>
  </g>
  <text x="135" y="1034" font-size="11" font-weight="500" fill="#3B7548" text-anchor="middle">• Analyst</text>

  <!-- Step 10: Dashboard -->
  <g filter="url(#softShadow2)"><rect x="262" y="978" width="180" height="72" rx="10" fill="white" stroke="#BFE0C8" stroke-width="1.5"/></g>
  <circle cx="240" cy="1014" r="22" fill="#3B7548" filter="url(#iconShadow2)"/>
  <text x="240" y="1022" font-size="20" font-weight="800" fill="white" text-anchor="middle">10</text>
  <g transform="translate(329, 985)" filter="url(#iconShadow2)">
    <rect x="0" y="0" width="46" height="32" rx="3" fill="url(#g2Green)"/>
    <rect x="3" y="3" width="40" height="26" rx="1" fill="#EAF7ED"/>
    <rect x="8" y="18" width="6" height="8" fill="#5C9E68"/>
    <rect x="17" y="13" width="6" height="13" fill="#88C292"/>
    <rect x="26" y="9" width="6" height="17" fill="#5C9E68"/>
    <rect x="20" y="32" width="6" height="5" fill="#3B7548"/>
  </g>
  <text x="352" y="1036" font-size="13" font-weight="700" fill="#1A2B4A" text-anchor="middle">AI/BI Dashboard</text>

  <!-- Consumer description card -->
  <g transform="translate(562, 978)" filter="url(#softShadow2)">
    <rect x="0" y="0" width="780" height="72" rx="10" fill="white" stroke="#BFE0C8" stroke-width="1.5"/>
    <text x="20" y="30" font-size="12" font-weight="700" fill="#1A2B4A">Six suburb questions, one join away:</text>
    <text x="20" y="52" font-size="11" fill="#475569">Demographics · Public transport · Crime rate · Public schooling · Affordability &amp; growth · Most expensive</text>
  </g>

  <!-- ═══════════ FOOTER — EVERY RUN GUARANTEES ═══════════ -->
  <rect x="50" y="1110" width="1400" height="90" rx="12" fill="#F7F9FC" stroke="#E0E7F0" stroke-width="1.5"/>
  <rect x="600" y="1095" width="300" height="32" rx="16" fill="#1A2B4A"/>
  <text x="750" y="1116" font-size="12" font-weight="700" letter-spacing="2" fill="white" text-anchor="middle">EVERY RUN GUARANTEES</text>

  <g transform="translate(250, 1150)">
    <circle cx="0" cy="0" r="18" fill="#DBE2F5"/>
    <g transform="scale(1.0)">
      <path d="M 10 0 A 10 10 0 1 1 0 -10" fill="none" stroke="#4B7BC9" stroke-width="2.4" stroke-linecap="round"/>
      <path d="M 0 -13 L 7.5 -10 L 0 -7 Z" fill="#4B7BC9"/>
    </g>
    <text x="40" y="-2" font-size="13" font-weight="700" fill="#1A2B4A">Idempotent</text>
    <text x="40" y="16" font-size="10" fill="#5B7BA8">re-run = no-op, no duplicates</text>
  </g>
  <g transform="translate(640, 1150)">
    <circle cx="0" cy="0" r="18" fill="#FBDAD2"/>
    <rect x="-9" y="-9" width="18" height="18" rx="2" fill="none" stroke="#A83A28" stroke-width="2"/>
    <line x1="-5" y1="-3" x2="5" y2="-3" stroke="#A83A28" stroke-width="1.8"/>
    <line x1="-5" y1="1" x2="5" y2="1" stroke="#A83A28" stroke-width="1.8"/>
    <line x1="-5" y1="5" x2="2" y2="5" stroke="#A83A28" stroke-width="1.8"/>
    <text x="40" y="-2" font-size="13" font-weight="700" fill="#1A2B4A">Logged</text>
    <text x="40" y="16" font-size="10" fill="#5B7BA8">status + row counts → pipeline_run_log</text>
  </g>
  <g transform="translate(1070, 1150)">
    <circle cx="0" cy="0" r="18" fill="#D6EBDB"/>
    <circle cx="-7" cy="-5" r="3.5" fill="#3B7548"/>
    <circle cx="8" cy="-3" r="3.5" fill="#3B7548"/>
    <circle cx="0" cy="9" r="3.5" fill="#3B7548"/>
    <line x1="-7" y1="-5" x2="8" y2="-3" stroke="#3B7548" stroke-width="1.6"/>
    <line x1="8" y1="-3" x2="0" y2="9" stroke="#3B7548" stroke-width="1.6"/>
    <line x1="-7" y1="-5" x2="0" y2="9" stroke="#3B7548" stroke-width="1.6"/>
    <text x="34" y="-2" font-size="13" font-weight="700" fill="#1A2B4A">Lineage</text>
    <text x="34" y="16" font-size="10" fill="#5B7BA8">job + data, via UC system tables</text>
  </g>
</svg>
