<svg xmlns="http://www.w3.org/2000/svg" viewBox="0 0 1740 1240" font-family="Inter, 'Segoe UI', system-ui, sans-serif">
<rect width="1740" height="1240" fill="#FFFFFF"/>
<defs><filter id="sh" x="-20%" y="-20%" width="140%" height="140%"><feDropShadow dx="0" dy="2" stdDeviation="3" flood-color="#1A2B4A" flood-opacity="0.16"/></filter><marker id="ar" markerWidth="5" markerHeight="5" refX="4" refY="2.5" orient="auto"><path d="M0 0 L5 2.5 L0 5 Z" fill="#6B7B96"/></marker><marker id="arA" markerWidth="5" markerHeight="5" refX="4" refY="2.5" orient="auto"><path d="M0 0 L5 2.5 L0 5 Z" fill="#E0A436"/></marker><marker id="arG" markerWidth="5" markerHeight="5" refX="4" refY="2.5" orient="auto"><path d="M0 0 L5 2.5 L0 5 Z" fill="#2BA24C"/></marker><marker id="arT" markerWidth="5" markerHeight="5" refX="4" refY="2.5" orient="auto"><path d="M0 0 L5 2.5 L0 5 Z" fill="#1FA39A"/></marker><marker id="arR" markerWidth="5" markerHeight="5" refX="4" refY="2.5" orient="auto"><path d="M0 0 L5 2.5 L0 5 Z" fill="#D6544D"/></marker></defs>
<rect x="0" y="0" width="1740" height="118" fill="#1A2B4A"/>
<rect x="0" y="114" width="1740" height="4" fill="#E0A436"/>
<text x="40" y="50" font-size="19" font-weight="800" fill="#96b4e6" text-anchor="start" font-family="Inter, 'Segoe UI', system-ui, sans-serif" letter-spacing="0.5">VICTORIA SUBURBS PROFILER</text>
<text x="40" y="84" font-size="30" font-weight="800" fill="#ffffff" text-anchor="start" font-family="Inter, 'Segoe UI', system-ui, sans-serif">Make Commands → Code Wiring</text>
<text x="40" y="106" font-size="14.5" font-weight="400" fill="#c2d2e6" text-anchor="start" font-family="Inter, 'Segoe UI', system-ui, sans-serif">Which file each command fires, what it does, and how every artefact is connected — one schematic, end to end.</text>
<text x="40" y="150" font-size="15" font-weight="800" fill="#1A2B4A" text-anchor="start" font-family="Inter, 'Segoe UI', system-ui, sans-serif" letter-spacing="0.4">▣  THE CONTROL PANEL</text>
<text x="245" y="150" font-size="13" font-weight="400" fill="#6B7B96" text-anchor="start" font-family="Inter, 'Segoe UI', system-ui, sans-serif">— seven buttons, in the order you press them  ·  all with ENV=dev</text>
<g filter="url(#sh)">
<rect x="40" y="172" width="222" height="150" rx="12" fill="#FFFFFF" stroke="#C7D2E4" stroke-width="1.5"/>
<path d="M41 206 v-22 a12 12 0 0 1 12 -12 h196 a12 12 0 0 1 12 12 v22 Z" fill="#6B7B96"/>
<text x="54" y="194" font-size="14.5" font-weight="800" fill="#fff" font-family="ui-monospace, 'Cascadia Code', 'JetBrains Mono', Consolas, monospace">make clean</text>
</g>
<text x="54" y="224" font-size="12" fill="#33415C" font-family="ui-monospace, 'Cascadia Code', 'JetBrains Mono', Consolas, monospace">▸ rm -rf …</text>
<text x="54" y="242" font-size="11.5" fill="#6B7B96" font-family="Inter, 'Segoe UI', system-ui, sans-serif">wipes local generated files:</text>
<text x="54" y="259.5" font-size="11.5" fill="#6B7B96" font-family="Inter, 'Segoe UI', system-ui, sans-serif">.local/, synthetic_universe.db,</text>
<text x="54" y="277.0" font-size="11.5" fill="#6B7B96" font-family="Inter, 'Segoe UI', system-ui, sans-serif">.pytest_cache  (touches no workspace)</text>
<circle cx="244" cy="187" r="11" fill="#ffffff" opacity="0.9"/>
<text x="244" y="191" font-size="12" font-weight="800" fill="#6B7B96" text-anchor="middle" font-family="Inter, 'Segoe UI', system-ui, sans-serif">1</text>
<g filter="url(#sh)">
<rect x="276" y="172" width="222" height="150" rx="12" fill="#FFFFFF" stroke="#C7D2E4" stroke-width="1.5"/>
<path d="M277 206 v-22 a12 12 0 0 1 12 -12 h196 a12 12 0 0 1 12 12 v22 Z" fill="#D6544D"/>
<text x="290" y="194" font-size="14.5" font-weight="800" fill="#fff" font-family="ui-monospace, 'Cascadia Code', 'JetBrains Mono', Consolas, monospace">make destroy</text>
</g>
<text x="290" y="224" font-size="12" fill="#33415C" font-family="ui-monospace, 'Cascadia Code', 'JetBrains Mono', Consolas, monospace">▸ destroy.sh</text>
<text x="290" y="242" font-size="11.5" fill="#6B7B96" font-family="Inter, 'Segoe UI', system-ui, sans-serif">tears the env down — bundle</text>
<text x="290" y="259.5" font-size="11.5" fill="#6B7B96" font-family="Inter, 'Segoe UI', system-ui, sans-serif">destroy → drop catalog → delete</text>
<text x="290" y="277.0" font-size="11.5" fill="#6B7B96" font-family="Inter, 'Segoe UI', system-ui, sans-serif">warehouse → delete RBAC groups</text>
<circle cx="480" cy="187" r="11" fill="#ffffff" opacity="0.9"/>
<text x="480" y="191" font-size="12" font-weight="800" fill="#D6544D" text-anchor="middle" font-family="Inter, 'Segoe UI', system-ui, sans-serif">2</text>
<g filter="url(#sh)">
<rect x="512" y="172" width="222" height="150" rx="12" fill="#FFFFFF" stroke="#C7D2E4" stroke-width="1.5"/>
<path d="M513 206 v-22 a12 12 0 0 1 12 -12 h196 a12 12 0 0 1 12 12 v22 Z" fill="#3D6BBA"/>
<text x="526" y="194" font-size="14.5" font-weight="800" fill="#fff" font-family="ui-monospace, 'Cascadia Code', 'JetBrains Mono', Consolas, monospace">make bootstrap</text>
</g>
<text x="526" y="224" font-size="12" fill="#33415C" font-family="ui-monospace, 'Cascadia Code', 'JetBrains Mono', Consolas, monospace">▸ bootstrap.sh</text>
<text x="526" y="242" font-size="11.5" fill="#6B7B96" font-family="Inter, 'Segoe UI', system-ui, sans-serif">stands the env up: groups →</text>
<text x="526" y="259.5" font-size="11.5" fill="#6B7B96" font-family="Inter, 'Segoe UI', system-ui, sans-serif">CREATE CATALOG (dbsql.sh) →</text>
<text x="526" y="277.0" font-size="11.5" fill="#6B7B96" font-family="Inter, 'Segoe UI', system-ui, sans-serif">deploy → schemas+Volume+grants</text>
<circle cx="716" cy="187" r="11" fill="#ffffff" opacity="0.9"/>
<text x="716" y="191" font-size="12" font-weight="800" fill="#3D6BBA" text-anchor="middle" font-family="Inter, 'Segoe UI', system-ui, sans-serif">3</text>
<g filter="url(#sh)">
<rect x="748" y="172" width="222" height="150" rx="12" fill="#FFFFFF" stroke="#C7D2E4" stroke-width="1.5"/>
<path d="M749 206 v-22 a12 12 0 0 1 12 -12 h196 a12 12 0 0 1 12 12 v22 Z" fill="#8A6BBF"/>
<text x="762" y="194" font-size="14.5" font-weight="800" fill="#fff" font-family="ui-monospace, 'Cascadia Code', 'JetBrains Mono', Consolas, monospace">make deploy</text>
</g>
<text x="762" y="224" font-size="12" fill="#33415C" font-family="ui-monospace, 'Cascadia Code', 'JetBrains Mono', Consolas, monospace">▸ bundle deploy</text>
<text x="762" y="242" font-size="11.5" fill="#6B7B96" font-family="Inter, 'Segoe UI', system-ui, sans-serif">reconciles the bundle from</text>
<text x="762" y="259.5" font-size="11.5" fill="#6B7B96" font-family="Inter, 'Segoe UI', system-ui, sans-serif">databricks.yml + resources/ :</text>
<text x="762" y="277.0" font-size="11.5" fill="#6B7B96" font-family="Inter, 'Segoe UI', system-ui, sans-serif">DLT pipeline · jobs · dashboards</text>
<circle cx="952" cy="187" r="11" fill="#ffffff" opacity="0.9"/>
<text x="952" y="191" font-size="12" font-weight="800" fill="#8A6BBF" text-anchor="middle" font-family="Inter, 'Segoe UI', system-ui, sans-serif">4</text>
<g filter="url(#sh)">
<rect x="984" y="172" width="222" height="150" rx="12" fill="#FFFFFF" stroke="#C7D2E4" stroke-width="1.5"/>
<path d="M985 206 v-22 a12 12 0 0 1 12 -12 h196 a12 12 0 0 1 12 12 v22 Z" fill="#1FA39A"/>
<text x="998" y="194" font-size="14.5" font-weight="800" fill="#fff" font-family="ui-monospace, 'Cascadia Code', 'JetBrains Mono', Consolas, monospace">make load</text>
</g>
<text x="998" y="224" font-size="12" fill="#33415C" font-family="ui-monospace, 'Cascadia Code', 'JetBrains Mono', Consolas, monospace">▸ seed+emit → fs cp</text>
<text x="998" y="242" font-size="11.5" fill="#6B7B96" font-family="Inter, 'Segoe UI', system-ui, sans-serif">builds the synthetic universe,</text>
<text x="998" y="259.5" font-size="11.5" fill="#6B7B96" font-family="Inter, 'Segoe UI', system-ui, sans-serif">writes baseline + a batch, and</text>
<text x="998" y="277.0" font-size="11.5" fill="#6B7B96" font-family="Inter, 'Segoe UI', system-ui, sans-serif">uploads them to the Volume</text>
<circle cx="1188" cy="187" r="11" fill="#ffffff" opacity="0.9"/>
<text x="1188" y="191" font-size="12" font-weight="800" fill="#1FA39A" text-anchor="middle" font-family="Inter, 'Segoe UI', system-ui, sans-serif">5</text>
<g filter="url(#sh)">
<rect x="1220" y="172" width="222" height="150" rx="12" fill="#FFFFFF" stroke="#C7D2E4" stroke-width="1.5"/>
<path d="M1221 206 v-22 a12 12 0 0 1 12 -12 h196 a12 12 0 0 1 12 12 v22 Z" fill="#2BA24C"/>
<text x="1234" y="194" font-size="14.5" font-weight="800" fill="#fff" font-family="ui-monospace, 'Cascadia Code', 'JetBrains Mono', Consolas, monospace">make run</text>
</g>
<text x="1234" y="224" font-size="12" fill="#33415C" font-family="ui-monospace, 'Cascadia Code', 'JetBrains Mono', Consolas, monospace">▸ bundle run …job</text>
<text x="1234" y="242" font-size="11.5" fill="#6B7B96" font-family="Inter, 'Segoe UI', system-ui, sans-serif">runs the job: open log → DLT</text>
<text x="1234" y="259.5" font-size="11.5" fill="#6B7B96" font-family="Inter, 'Segoe UI', system-ui, sans-serif">(Bronze→Silver→Gold) →</text>
<text x="1234" y="277.0" font-size="11.5" fill="#6B7B96" font-family="Inter, 'Segoe UI', system-ui, sans-serif">reporting views → close log</text>
<circle cx="1424" cy="187" r="11" fill="#ffffff" opacity="0.9"/>
<text x="1424" y="191" font-size="12" font-weight="800" fill="#2BA24C" text-anchor="middle" font-family="Inter, 'Segoe UI', system-ui, sans-serif">6</text>
<g filter="url(#sh)">
<rect x="1456" y="172" width="222" height="150" rx="12" fill="#FFFFFF" stroke="#C7D2E4" stroke-width="1.5"/>
<path d="M1457 206 v-22 a12 12 0 0 1 12 -12 h196 a12 12 0 0 1 12 12 v22 Z" fill="#E0A436"/>
<text x="1470" y="194" font-size="14.5" font-weight="800" fill="#fff" font-family="ui-monospace, 'Cascadia Code', 'JetBrains Mono', Consolas, monospace">make verify</text>
</g>
<text x="1470" y="224" font-size="12" fill="#33415C" font-family="ui-monospace, 'Cascadia Code', 'JetBrains Mono', Consolas, monospace">▸ verify_pipeline.sh</text>
<text x="1470" y="242" font-size="11.5" fill="#6B7B96" font-family="Inter, 'Segoe UI', system-ui, sans-serif">independent post-run checks:</text>
<text x="1470" y="259.5" font-size="11.5" fill="#6B7B96" font-family="Inter, 'Segoe UI', system-ui, sans-serif">row flow, dim keys, fact grain,</text>
<text x="1470" y="277.0" font-size="11.5" fill="#6B7B96" font-family="Inter, 'Segoe UI', system-ui, sans-serif">orphans, serving views</text>
<circle cx="1660" cy="187" r="11" fill="#ffffff" opacity="0.9"/>
<text x="1660" y="191" font-size="12" font-weight="800" fill="#E0A436" text-anchor="middle" font-family="Inter, 'Segoe UI', system-ui, sans-serif">7</text>
<text x="40" y="392" font-size="15" font-weight="800" fill="#1A2B4A" text-anchor="start" font-family="Inter, 'Segoe UI', system-ui, sans-serif" letter-spacing="0.4">⚙  HOW IT'S WIRED — the engine</text>
<text x="360" y="392" font-size="12.5" font-weight="400" fill="#6B7B96" text-anchor="start" font-family="Inter, 'Segoe UI', system-ui, sans-serif">grey arrows = data flow   ·   coloured chip = the command that builds/triggers that part</text>
<rect x="40" y="432" width="1660" height="184" rx="14" fill="#F4F7FB" stroke="#C7D2E4" stroke-width="1.5"/>
<text x="58" y="458" font-size="12.5" font-weight="800" fill="#1A2B4A" text-anchor="start" font-family="Inter, 'Segoe UI', system-ui, sans-serif">ON YOUR LAPTOP (WSL)  ·  pure Python, no workspace</text>
<g filter="url(#sh)">
<rect x="58" y="478" width="224" height="90" rx="12" fill="#FFFFFF" stroke="#C7D2E4" stroke-width="1.5"/>
<path d="M59 512 v-22 a12 12 0 0 1 12 -12 h198 a12 12 0 0 1 12 12 v22 Z" fill="#3D6BBA"/>
<text x="72" y="500" font-size="14.5" font-weight="800" fill="#fff" font-family="ui-monospace, 'Cascadia Code', 'JetBrains Mono', Consolas, monospace">config/synthetic</text>
</g>
<text x="72" y="530" font-size="10.5" fill="#6B7B96" font-family="Inter, 'Segoe UI', system-ui, sans-serif">seed_config · suburb_seed</text>
<text x="72" y="546.5" font-size="10.5" fill="#6B7B96" font-family="Inter, 'Segoe UI', system-ui, sans-serif">· mutation_rules</text>
<g filter="url(#sh)">
<rect x="312" y="478" width="202" height="90" rx="12" fill="#FFFFFF" stroke="#C7D2E4" stroke-width="1.5"/>
<path d="M313 512 v-22 a12 12 0 0 1 12 -12 h176 a12 12 0 0 1 12 12 v22 Z" fill="#1A2B4A"/>
<text x="326" y="500" font-size="14.5" font-weight="800" fill="#fff" font-family="ui-monospace, 'Cascadia Code', 'JetBrains Mono', Consolas, monospace">seed.py</text>
</g>
<rect x="456.4" y="486" width="45.6" height="20" rx="10" fill="#1FA39A"/>
<text x="479.2" y="500" font-size="11" font-weight="700" fill="#fff" text-anchor="middle" font-family="Inter, 'Segoe UI', system-ui, sans-serif">load</text>
<text x="326" y="530" font-size="10.5" fill="#6B7B96" font-family="Inter, 'Segoe UI', system-ui, sans-serif">builds the universe +</text>
<text x="326" y="546.5" font-size="10.5" fill="#6B7B96" font-family="Inter, 'Segoe UI', system-ui, sans-serif">full 50-yr baseline</text>
<g filter="url(#sh)">
<rect x="544" y="478" width="206" height="90" rx="12" fill="#FFFFFF" stroke="#C7D2E4" stroke-width="1.5"/>
<path d="M545 512 v-22 a12 12 0 0 1 12 -12 h180 a12 12 0 0 1 12 12 v22 Z" fill="#1A2B4A"/>
<text x="558" y="500" font-size="14.5" font-weight="800" fill="#fff" font-family="ui-monospace, 'Cascadia Code', 'JetBrains Mono', Consolas, monospace">universe.db</text>
</g>
<rect x="692.4" y="486" width="45.6" height="20" rx="10" fill="#1FA39A"/>
<text x="715.1999999999999" y="500" font-size="11" font-weight="700" fill="#fff" text-anchor="middle" font-family="Inter, 'Segoe UI', system-ui, sans-serif">load</text>
<text x="558" y="530" font-size="10.5" fill="#6B7B96" font-family="Inter, 'Segoe UI', system-ui, sans-serif">the SQLite</text>
<text x="558" y="546.5" font-size="10.5" fill="#6B7B96" font-family="Inter, 'Segoe UI', system-ui, sans-serif">synthetic universe</text>
<g filter="url(#sh)">
<rect x="780" y="478" width="202" height="90" rx="12" fill="#FFFFFF" stroke="#C7D2E4" stroke-width="1.5"/>
<path d="M781 512 v-22 a12 12 0 0 1 12 -12 h176 a12 12 0 0 1 12 12 v22 Z" fill="#1A2B4A"/>
<text x="794" y="500" font-size="14.5" font-weight="800" fill="#fff" font-family="ui-monospace, 'Cascadia Code', 'JetBrains Mono', Consolas, monospace">emit.py</text>
</g>
<rect x="924.4" y="486" width="45.6" height="20" rx="10" fill="#1FA39A"/>
<text x="947.1999999999999" y="500" font-size="11" font-weight="700" fill="#fff" text-anchor="middle" font-family="Inter, 'Segoe UI', system-ui, sans-serif">load</text>
<text x="794" y="530" font-size="10.5" fill="#6B7B96" font-family="Inter, 'Segoe UI', system-ui, sans-serif">incremental batch:</text>
<text x="794" y="546.5" font-size="10.5" fill="#6B7B96" font-family="Inter, 'Segoe UI', system-ui, sans-serif">new · update · mixed</text>
<g filter="url(#sh)">
<rect x="1012" y="478" width="218" height="90" rx="12" fill="#FFFFFF" stroke="#C7D2E4" stroke-width="1.5"/>
<path d="M1013 512 v-22 a12 12 0 0 1 12 -12 h192 a12 12 0 0 1 12 12 v22 Z" fill="#1A2B4A"/>
<text x="1026" y="500" font-size="14.5" font-weight="800" fill="#fff" font-family="ui-monospace, 'Cascadia Code', 'JetBrains Mono', Consolas, monospace">.local/landing</text>
</g>
<rect x="1172.4" y="486" width="45.6" height="20" rx="10" fill="#1FA39A"/>
<text x="1195.2" y="500" font-size="11" font-weight="700" fill="#fff" text-anchor="middle" font-family="Inter, 'Segoe UI', system-ui, sans-serif">load</text>
<text x="1026" y="530" font-size="10.5" fill="#6B7B96" font-family="Inter, 'Segoe UI', system-ui, sans-serif">per-entity CSV files,</text>
<text x="1026" y="546.5" font-size="10.5" fill="#6B7B96" font-family="Inter, 'Segoe UI', system-ui, sans-serif">batch_id-stamped</text>
<path d="M282 523.0 H312" fill="none" stroke="#6B7B96" stroke-width="2.4" marker-end="url(#ar)"/>
<text x="297.0" y="515.0" font-size="10.5" font-style="italic" fill="#6B7B96" text-anchor="middle" font-family="Inter, 'Segoe UI', system-ui, sans-serif">reads</text>
<path d="M514 523.0 H544" fill="none" stroke="#6B7B96" stroke-width="2.4" marker-end="url(#ar)"/>
<text x="529.0" y="515.0" font-size="10.5" font-style="italic" fill="#6B7B96" text-anchor="middle" font-family="Inter, 'Segoe UI', system-ui, sans-serif">writes</text>
<path d="M750 523.0 H780" fill="none" stroke="#6B7B96" stroke-width="2.4" marker-end="url(#ar)"/>
<text x="765.0" y="515.0" font-size="10.5" font-style="italic" fill="#6B7B96" text-anchor="middle" font-family="Inter, 'Segoe UI', system-ui, sans-serif">reads</text>
<path d="M982 523.0 H1012" fill="none" stroke="#6B7B96" stroke-width="2.4" marker-end="url(#ar)"/>
<path d="M312 592 H1230" stroke="#D6544D" stroke-width="1.6" stroke-dasharray="6 4"/>
<text x="771" y="585" font-size="11" font-weight="700" fill="#D6544D" text-anchor="middle" font-family="Inter, 'Segoe UI', system-ui, sans-serif">↺  make clean — deletes these local files (.local/ · synthetic_universe.db · caches)</text>
<rect x="40" y="626" width="1660" height="502" rx="16" fill="#FBFCFE" stroke="#C7D2E4" stroke-width="1.6"/>
<rect x="46" y="632" width="1648" height="490" rx="13" fill="none" stroke="#D6544D" stroke-width="1.6" stroke-dasharray="7 5" opacity="0.45"/>
<text x="58" y="652" font-size="13.5" font-weight="800" fill="#1A2B4A" text-anchor="start" font-family="Inter, 'Segoe UI', system-ui, sans-serif">DATABRICKS WORKSPACE  ·  Unity Catalog  ·  vic_suburbs_dev</text>
<rect x="1402" y="637" width="282" height="24" rx="12" fill="#fff" stroke="#D6544D" stroke-width="1.5"/>
<text x="1543" y="653" font-size="11.5" font-weight="700" fill="#D6544D" text-anchor="middle" font-family="Inter, 'Segoe UI', system-ui, sans-serif">↺ make destroy removes it all</text>
<path d="M1121 568 V678 H183 V702" fill="none" stroke="#1FA39A" stroke-width="2.6" marker-end="url(#arT)"/>
<text x="540" y="672" font-size="11.5" font-weight="700" fill="#1FA39A" font-family="Inter, 'Segoe UI', system-ui, sans-serif">make load · databricks fs cp -r  →  landing Volume</text>
<g filter="url(#sh)">
<rect x="58" y="702" width="250" height="94" rx="12" fill="#FFFFFF" stroke="#C7D2E4" stroke-width="1.5"/>
<path d="M59 736 v-22 a12 12 0 0 1 12 -12 h224 a12 12 0 0 1 12 12 v22 Z" fill="#1A2B4A"/>
<text x="72" y="724" font-size="14.5" font-weight="800" fill="#fff" font-family="ui-monospace, 'Cascadia Code', 'JetBrains Mono', Consolas, monospace">00_landing</text>
</g>
<text x="72" y="754" font-size="12" fill="#33415C" font-family="ui-monospace, 'Cascadia Code', 'JetBrains Mono', Consolas, monospace">Volume</text>
<text x="72" y="772" font-size="10.6" fill="#6B7B96" font-family="Inter, 'Segoe UI', system-ui, sans-serif">uploaded CSV files land here</text>
<g filter="url(#sh)">
<rect x="330" y="702" width="250" height="94" rx="12" fill="#FFFFFF" stroke="#C7D2E4" stroke-width="1.5"/>
<path d="M331 736 v-22 a12 12 0 0 1 12 -12 h224 a12 12 0 0 1 12 12 v22 Z" fill="#2BA24C"/>
<text x="344" y="724" font-size="14.5" font-weight="800" fill="#fff" font-family="ui-monospace, 'Cascadia Code', 'JetBrains Mono', Consolas, monospace">01_bronze</text>
</g>
<rect x="529.8" y="710" width="38.2" height="20" rx="10" fill="#2BA24C"/>
<text x="548.9" y="724" font-size="11" font-weight="700" fill="#fff" text-anchor="middle" font-family="Inter, 'Segoe UI', system-ui, sans-serif">run</text>
<text x="344" y="754" font-size="12" fill="#33415C" font-family="ui-monospace, 'Cascadia Code', 'JetBrains Mono', Consolas, monospace">raw_*</text>
<text x="344" y="772" font-size="10.6" fill="#6B7B96" font-family="Inter, 'Segoe UI', system-ui, sans-serif">append-only copy of source</text>
<path d="M308 749.0 H330" fill="none" stroke="#6B7B96" stroke-width="2.4" marker-end="url(#ar)"/>
<text x="319.0" y="695" font-size="10.3" font-style="italic" fill="#6B7B96" text-anchor="middle" font-family="Inter, 'Segoe UI', system-ui, sans-serif">Auto Loader</text>
<g filter="url(#sh)">
<rect x="602" y="702" width="250" height="94" rx="12" fill="#FFFFFF" stroke="#C7D2E4" stroke-width="1.5"/>
<path d="M603 736 v-22 a12 12 0 0 1 12 -12 h224 a12 12 0 0 1 12 12 v22 Z" fill="#2BA24C"/>
<text x="616" y="724" font-size="14.5" font-weight="800" fill="#fff" font-family="ui-monospace, 'Cascadia Code', 'JetBrains Mono', Consolas, monospace">02_silver</text>
</g>
<rect x="801.8" y="710" width="38.2" height="20" rx="10" fill="#2BA24C"/>
<text x="820.9" y="724" font-size="11" font-weight="700" fill="#fff" text-anchor="middle" font-family="Inter, 'Segoe UI', system-ui, sans-serif">run</text>
<text x="616" y="754" font-size="12" fill="#33415C" font-family="ui-monospace, 'Cascadia Code', 'JetBrains Mono', Consolas, monospace">typed + DQ</text>
<text x="616" y="772" font-size="10.6" fill="#6B7B96" font-family="Inter, 'Segoe UI', system-ui, sans-serif">cast · validate · dedup</text>
<path d="M580 749.0 H602" fill="none" stroke="#6B7B96" stroke-width="2.4" marker-end="url(#ar)"/>
<text x="591.0" y="695" font-size="10.3" font-style="italic" fill="#6B7B96" text-anchor="middle" font-family="Inter, 'Segoe UI', system-ui, sans-serif">DQ · dedup</text>
<g filter="url(#sh)">
<rect x="874" y="702" width="250" height="94" rx="12" fill="#FFFFFF" stroke="#C7D2E4" stroke-width="1.5"/>
<path d="M875 736 v-22 a12 12 0 0 1 12 -12 h224 a12 12 0 0 1 12 12 v22 Z" fill="#2BA24C"/>
<text x="888" y="724" font-size="14.5" font-weight="800" fill="#fff" font-family="ui-monospace, 'Cascadia Code', 'JetBrains Mono', Consolas, monospace">03_gold</text>
</g>
<rect x="1073.8" y="710" width="38.2" height="20" rx="10" fill="#2BA24C"/>
<text x="1092.8999999999999" y="724" font-size="11" font-weight="700" fill="#fff" text-anchor="middle" font-family="Inter, 'Segoe UI', system-ui, sans-serif">run</text>
<text x="888" y="754" font-size="12" fill="#33415C" font-family="ui-monospace, 'Cascadia Code', 'JetBrains Mono', Consolas, monospace">dim_* / fact_*</text>
<text x="888" y="772" font-size="10.6" fill="#6B7B96" font-family="Inter, 'Segoe UI', system-ui, sans-serif">SCD2 dims + SKs + facts</text>
<path d="M852 749.0 H874" fill="none" stroke="#6B7B96" stroke-width="2.4" marker-end="url(#ar)"/>
<text x="863.0" y="695" font-size="10.3" font-style="italic" fill="#6B7B96" text-anchor="middle" font-family="Inter, 'Segoe UI', system-ui, sans-serif">APPLY CHANGES</text>
<g filter="url(#sh)">
<rect x="1146" y="702" width="250" height="94" rx="12" fill="#FFFFFF" stroke="#C7D2E4" stroke-width="1.5"/>
<path d="M1147 736 v-22 a12 12 0 0 1 12 -12 h224 a12 12 0 0 1 12 12 v22 Z" fill="#2BA24C"/>
<text x="1160" y="724" font-size="14.5" font-weight="800" fill="#fff" font-family="ui-monospace, 'Cascadia Code', 'JetBrains Mono', Consolas, monospace">04_reporting</text>
</g>
<rect x="1345.8" y="710" width="38.2" height="20" rx="10" fill="#2BA24C"/>
<text x="1364.8999999999999" y="724" font-size="11" font-weight="700" fill="#fff" text-anchor="middle" font-family="Inter, 'Segoe UI', system-ui, sans-serif">run</text>
<text x="1160" y="754" font-size="12" fill="#33415C" font-family="ui-monospace, 'Cascadia Code', 'JetBrains Mono', Consolas, monospace">vw_q1…q6</text>
<text x="1160" y="772" font-size="10.6" fill="#6B7B96" font-family="Inter, 'Segoe UI', system-ui, sans-serif">one view per question</text>
<path d="M1124 749.0 H1146" fill="none" stroke="#6B7B96" stroke-width="2.4" marker-end="url(#ar)"/>
<text x="1135.0" y="695" font-size="10.3" font-style="italic" fill="#6B7B96" text-anchor="middle" font-family="Inter, 'Segoe UI', system-ui, sans-serif">CREATE VIEW</text>
<g filter="url(#sh)">
<rect x="1418" y="702" width="250" height="94" rx="12" fill="#FFFFFF" stroke="#C7D2E4" stroke-width="1.5"/>
<path d="M1419 736 v-22 a12 12 0 0 1 12 -12 h224 a12 12 0 0 1 12 12 v22 Z" fill="#1A2B4A"/>
<text x="1432" y="724" font-size="14.5" font-weight="800" fill="#fff" font-family="ui-monospace, 'Cascadia Code', 'JetBrains Mono', Consolas, monospace">dashboard</text>
</g>
<text x="1432" y="754" font-size="12" fill="#33415C" font-family="ui-monospace, 'Cascadia Code', 'JetBrains Mono', Consolas, monospace">AI/BI</text>
<text x="1432" y="772" font-size="10.6" fill="#6B7B96" font-family="Inter, 'Segoe UI', system-ui, sans-serif">six tabs, one per Q</text>
<path d="M1396 749.0 H1418" fill="none" stroke="#6B7B96" stroke-width="2.4" marker-end="url(#ar)"/>
<text x="1407.0" y="695" font-size="10.3" font-style="italic" fill="#6B7B96" text-anchor="middle" font-family="Inter, 'Segoe UI', system-ui, sans-serif">reads views</text>
<text x="58" y="830" font-size="12.5" font-weight="800" fill="#2BA24C" text-anchor="start" font-family="Inter, 'Segoe UI', system-ui, sans-serif">make run ▸ databricks bundle run vic_suburbs_job   —   the job that builds the medallion above</text>
<rect x="58" y="842" width="256" height="46" rx="10" fill="#F1F8F2" stroke="#2BA24C" stroke-width="1.5"/>
<text x="72" y="862" font-size="12.5" font-weight="800" fill="#1A2B4A" font-family="ui-monospace, 'Cascadia Code', 'JetBrains Mono', Consolas, monospace">open_run_log</text>
<text x="72" y="879" font-size="11" fill="#6B7B96" font-family="ui-monospace, 'Cascadia Code', 'JetBrains Mono', Consolas, monospace">pre_task.py</text>
<path d="M314 865 H330" fill="none" stroke="#2BA24C" stroke-width="2.4" marker-end="url(#arG)"/>
<rect x="330" y="842" width="256" height="46" rx="10" fill="#F1F8F2" stroke="#2BA24C" stroke-width="1.5"/>
<text x="344" y="862" font-size="12.5" font-weight="800" fill="#1A2B4A" font-family="ui-monospace, 'Cascadia Code', 'JetBrains Mono', Consolas, monospace">build_lakehouse</text>
<text x="344" y="879" font-size="11" fill="#6B7B96" font-family="ui-monospace, 'Cascadia Code', 'JetBrains Mono', Consolas, monospace">DLT → dlt_entry.py</text>
<path d="M586 865 H602" fill="none" stroke="#2BA24C" stroke-width="2.4" marker-end="url(#arG)"/>
<rect x="602" y="842" width="256" height="46" rx="10" fill="#F1F8F2" stroke="#2BA24C" stroke-width="1.5"/>
<text x="616" y="862" font-size="12.5" font-weight="800" fill="#1A2B4A" font-family="ui-monospace, 'Cascadia Code', 'JetBrains Mono', Consolas, monospace">build_reporting</text>
<text x="616" y="879" font-size="11" fill="#6B7B96" font-family="ui-monospace, 'Cascadia Code', 'JetBrains Mono', Consolas, monospace">build_reporting.py</text>
<path d="M858 865 H874" fill="none" stroke="#2BA24C" stroke-width="2.4" marker-end="url(#arG)"/>
<rect x="874" y="842" width="256" height="46" rx="10" fill="#F1F8F2" stroke="#2BA24C" stroke-width="1.5"/>
<text x="888" y="862" font-size="12.5" font-weight="800" fill="#1A2B4A" font-family="ui-monospace, 'Cascadia Code', 'JetBrains Mono', Consolas, monospace">close_run_log</text>
<text x="888" y="879" font-size="11" fill="#6B7B96" font-family="ui-monospace, 'Cascadia Code', 'JetBrains Mono', Consolas, monospace">post_task.py</text>
<text x="1110" y="870" font-size="11" font-style="italic" fill="#6B7B96" font-family="Inter, 'Segoe UI', system-ui, sans-serif">dlt_entry.py loops every entity → bronze.py · silver.py · gold.py</text>
<text x="58" y="906" font-size="12" font-weight="700" fill="#1A2B4A" text-anchor="start" font-family="Inter, 'Segoe UI', system-ui, sans-serif">PROVISIONED FIRST  —  by  make bootstrap  (which also runs  make deploy  as its step 3)</text>
<g filter="url(#sh)">
<rect x="58" y="914" width="470" height="92" rx="12" fill="#FFFFFF" stroke="#C7D2E4" stroke-width="1.5"/>
<path d="M59 948 v-22 a12 12 0 0 1 12 -12 h444 a12 12 0 0 1 12 12 v22 Z" fill="#3D6BBA"/>
<text x="72" y="936" font-size="14.5" font-weight="800" fill="#fff" font-family="ui-monospace, 'Cascadia Code', 'JetBrains Mono', Consolas, monospace">deployment/bootstrap.sh</text>
</g>
<rect x="433.4" y="922" width="82.60000000000001" height="20" rx="10" fill="#3D6BBA"/>
<text x="474.7" y="936" font-size="11" font-weight="700" fill="#fff" text-anchor="middle" font-family="Inter, 'Segoe UI', system-ui, sans-serif">bootstrap</text>
<text x="72" y="966" font-size="11" fill="#6B7B96" font-family="Inter, 'Segoe UI', system-ui, sans-serif">[1] 5 account RBAC groups</text>
<text x="72" y="983" font-size="11" fill="#6B7B96" font-family="Inter, 'Segoe UI', system-ui, sans-serif">[2] CREATE CATALOG  ← tools/dbsql.sh</text>
<text x="72" y="1000" font-size="11" fill="#6B7B96" font-family="Inter, 'Segoe UI', system-ui, sans-serif">[4] bootstrap_uc.py → 6 schemas · landing Volume · grants</text>
<g filter="url(#sh)">
<rect x="550" y="914" width="470" height="92" rx="12" fill="#FFFFFF" stroke="#C7D2E4" stroke-width="1.5"/>
<path d="M551 948 v-22 a12 12 0 0 1 12 -12 h444 a12 12 0 0 1 12 12 v22 Z" fill="#8A6BBF"/>
<text x="564" y="936" font-size="14.5" font-weight="800" fill="#fff" font-family="ui-monospace, 'Cascadia Code', 'JetBrains Mono', Consolas, monospace">[3] databricks bundle deploy</text>
</g>
<rect x="947.6" y="922" width="60.400000000000006" height="20" rx="10" fill="#8A6BBF"/>
<text x="977.8000000000001" y="936" font-size="11" font-weight="700" fill="#fff" text-anchor="middle" font-family="Inter, 'Segoe UI', system-ui, sans-serif">deploy</text>
<text x="564" y="966" font-size="11" fill="#6B7B96" font-family="Inter, 'Segoe UI', system-ui, sans-serif">reconciles databricks.yml + resources/ →</text>
<text x="564" y="983" font-size="11" fill="#6B7B96" font-family="Inter, 'Segoe UI', system-ui, sans-serif">DLT pipeline · vic_suburbs_job · bootstrap_job</text>
<text x="564" y="1000" font-size="11" fill="#6B7B96" font-family="Inter, 'Segoe UI', system-ui, sans-serif">AI/BI dashboard · schedule · run-as (dev·qa·prod)</text>
<text x="1044" y="928" font-size="11" font-weight="400" fill="#6B7B96" text-anchor="start" font-family="Inter, 'Segoe UI', system-ui, sans-serif">the six layer schemas it creates:</text>
<rect x="1044" y="940" width="148" height="18" rx="5" fill="#EEF3FA" stroke="#3D6BBA" stroke-width="1"/>
<text x="1118.0" y="953" font-size="10.5" font-weight="700" fill="#1A2B4A" text-anchor="middle" font-family="ui-monospace, 'Cascadia Code', 'JetBrains Mono', Consolas, monospace">00_landing</text>
<rect x="1202" y="940" width="148" height="18" rx="5" fill="#EEF3FA" stroke="#3D6BBA" stroke-width="1"/>
<text x="1276.0" y="953" font-size="10.5" font-weight="700" fill="#1A2B4A" text-anchor="middle" font-family="ui-monospace, 'Cascadia Code', 'JetBrains Mono', Consolas, monospace">01_bronze</text>
<rect x="1044" y="962" width="148" height="18" rx="5" fill="#EEF3FA" stroke="#3D6BBA" stroke-width="1"/>
<text x="1118.0" y="975" font-size="10.5" font-weight="700" fill="#1A2B4A" text-anchor="middle" font-family="ui-monospace, 'Cascadia Code', 'JetBrains Mono', Consolas, monospace">02_silver</text>
<rect x="1202" y="962" width="148" height="18" rx="5" fill="#EEF3FA" stroke="#3D6BBA" stroke-width="1"/>
<text x="1276.0" y="975" font-size="10.5" font-weight="700" fill="#1A2B4A" text-anchor="middle" font-family="ui-monospace, 'Cascadia Code', 'JetBrains Mono', Consolas, monospace">03_gold</text>
<rect x="1044" y="984" width="148" height="18" rx="5" fill="#EEF3FA" stroke="#3D6BBA" stroke-width="1"/>
<text x="1118.0" y="997" font-size="10.5" font-weight="700" fill="#1A2B4A" text-anchor="middle" font-family="ui-monospace, 'Cascadia Code', 'JetBrains Mono', Consolas, monospace">04_reporting</text>
<rect x="1202" y="984" width="148" height="18" rx="5" fill="#EEF3FA" stroke="#3D6BBA" stroke-width="1"/>
<text x="1276.0" y="997" font-size="10.5" font-weight="700" fill="#1A2B4A" text-anchor="middle" font-family="ui-monospace, 'Cascadia Code', 'JetBrains Mono', Consolas, monospace">05_metadata</text>
<g filter="url(#sh)">
<rect x="58" y="1030" width="470" height="80" rx="12" fill="#FFFFFF" stroke="#C7D2E4" stroke-width="1.5"/>
<path d="M59 1064 v-22 a12 12 0 0 1 12 -12 h444 a12 12 0 0 1 12 12 v22 Z" fill="#1A2B4A"/>
<text x="72" y="1052" font-size="14.5" font-weight="800" fill="#fff" font-family="ui-monospace, 'Cascadia Code', 'JetBrains Mono', Consolas, monospace">05_metadata</text>
</g>
<rect x="477.8" y="1038" width="38.2" height="20" rx="10" fill="#2BA24C"/>
<text x="496.90000000000003" y="1052" font-size="11" font-weight="700" fill="#fff" text-anchor="middle" font-family="Inter, 'Segoe UI', system-ui, sans-serif">run</text>
<text x="72" y="1082" font-size="11" fill="#6B7B96" font-family="Inter, 'Segoe UI', system-ui, sans-serif">pipeline_run_log  (pre_task opens · post_task closes)</text>
<text x="72" y="1099" font-size="11" fill="#6B7B96" font-family="Inter, 'Segoe UI', system-ui, sans-serif">pipeline_event_log · dq_results · vw_pipeline_health</text>
<g filter="url(#sh)">
<rect x="1118" y="1030" width="566" height="80" rx="12" fill="#FFFFFF" stroke="#C7D2E4" stroke-width="1.5"/>
<path d="M1119 1064 v-22 a12 12 0 0 1 12 -12 h540 a12 12 0 0 1 12 12 v22 Z" fill="#E0A436"/>
<text x="1132" y="1052" font-size="14.5" font-weight="800" fill="#fff" font-family="ui-monospace, 'Cascadia Code', 'JetBrains Mono', Consolas, monospace">operations/verify_pipeline.sh</text>
</g>
<rect x="1611.6" y="1038" width="60.400000000000006" height="20" rx="10" fill="#E0A436"/>
<text x="1641.8" y="1052" font-size="11" font-weight="700" fill="#fff" text-anchor="middle" font-family="Inter, 'Segoe UI', system-ui, sans-serif">verify</text>
<text x="1132" y="1082" font-size="11" fill="#6B7B96" font-family="Inter, 'Segoe UI', system-ui, sans-serif">independent read-only checks across 01–05:</text>
<text x="1132" y="1099" font-size="11" fill="#6B7B96" font-family="Inter, 'Segoe UI', system-ui, sans-serif">row flow · unique SKs · fact grain · zero orphans · views OK</text>
<path d="M1543.0 796 V1030" fill="none" stroke="#E0A436" stroke-width="2.2" stroke-dasharray="5 4" marker-end="url(#arA)"/>
<text x="1118" y="1021" font-size="10.5" font-weight="700" fill="#E0A436" text-anchor="start" font-family="Inter, 'Segoe UI', system-ui, sans-serif">make verify reads the built result (01 → 05)</text>
<text x="40" y="1162" font-size="13" font-weight="800" fill="#1A2B4A" text-anchor="start" font-family="Inter, 'Segoe UI', system-ui, sans-serif">LEGEND</text>
<line x1="120" y1="1158" x2="154" y2="1158" stroke="#6B7B96" stroke-width="2.4" marker-end="url(#ar)"/>
<text x="164" y="1162" font-size="12" font-weight="400" fill="#33415C" text-anchor="start" font-family="Inter, 'Segoe UI', system-ui, sans-serif">data flow between artefacts</text>
<line x1="430" y1="1158" x2="464" y2="1158" stroke="#E0A436" stroke-width="2.2" stroke-dasharray="5 4" marker-end="url(#arA)"/>
<text x="474" y="1162" font-size="12" font-weight="400" fill="#33415C" text-anchor="start" font-family="Inter, 'Segoe UI', system-ui, sans-serif">read-only check (verify)</text>
<rect x="700" y="1146" width="38.2" height="20" rx="10" fill="#2BA24C"/>
<text x="719.1" y="1160" font-size="11" font-weight="700" fill="#fff" text-anchor="middle" font-family="Inter, 'Segoe UI', system-ui, sans-serif">run</text>
<text x="756" y="1162" font-size="12" font-weight="400" fill="#33415C" text-anchor="start" font-family="Inter, 'Segoe UI', system-ui, sans-serif">the make command that builds / triggers that part</text>
<rect x="1230" y="1147" width="34" height="16" rx="4" fill="none" stroke="#D6544D" stroke-width="1.6" stroke-dasharray="6 4"/>
<text x="1274" y="1162" font-size="12" font-weight="400" fill="#33415C" text-anchor="start" font-family="Inter, 'Segoe UI', system-ui, sans-serif">make clean / make destroy reset zones</text>
</svg>
